<svg width="120" height="121" viewBox="0 0 120 121" fill="none" xmlns="http://www.w3.org/2000/svg">
<path d="M39.2485 53.0086V76.8886M27.3085 64.9486H51.1885M4.28565 60.5C4.28565 71.0549 8.47855 81.1774 15.942 88.6408C23.4054 96.1042 33.5279 100.297 44.0828 100.297H83.8799C88.3659 100.287 92.7991 99.3286 96.8889 97.4852C100.979 95.6417 104.633 92.9547 107.611 89.6003C110.59 86.2458 112.826 82.2997 114.173 78.0207C115.52 73.7416 115.947 69.2262 115.427 64.7704C114.906 60.3147 113.45 56.0192 111.153 52.1656C108.857 48.312 105.772 44.9873 102.1 42.4095C98.4289 39.8317 94.2541 38.0589 89.8496 37.2074C85.4452 36.3559 80.9105 36.4449 76.5428 37.4686C71.6577 30.5818 64.7089 25.4272 56.7011 22.75C48.6933 20.0729 40.0415 20.012 31.9968 22.5762C23.9522 25.1404 16.9315 30.1967 11.95 37.0141C6.96848 43.8315 4.28433 52.0566 4.28565 60.5Z" stroke="black" stroke-width="4" stroke-linecap="round" stroke-linejoin="round"/>
<path d="M78.2658 67.8115C77.9816 67.8115 77.7091 67.6986 77.5082 67.4977C77.3072 67.2967 77.1943 67.0242 77.1943 66.7401C77.1943 66.4559 77.3072 66.1834 77.5082 65.9824C77.7091 65.7815 77.9816 65.6686 78.2658 65.6686M78.2658 67.8115C78.5499 67.8115 78.8224 67.6986 79.0234 67.4977C79.2243 67.2967 79.3372 67.0242 79.3372 66.7401C79.3372 66.4559 79.2243 66.1834 79.0234 65.9824C78.8224 65.7815 78.5499 65.6686 78.2658 65.6686M96.6001 67.8115C96.3159 67.8115 96.0434 67.6986 95.8424 67.4977C95.6415 67.2967 95.5286 67.0242 95.5286 66.7401C95.5286 66.4559 95.6415 66.1834 95.8424 65.9824C96.0434 65.7815 96.3159 65.6686 96.6001 65.6686M96.6001 67.8115C96.8842 67.8115 97.1567 67.6986 97.3577 67.4977C97.5586 67.2967 97.6715 67.0242 97.6715 66.7401C97.6715 66.4559 97.5586 66.1834 97.3577 65.9824C97.1567 65.7815 96.8842 65.6686 96.6001 65.6686M87.6429 58.8372C87.3588 58.8372 87.0862 58.7243 86.8853 58.5234C86.6844 58.3224 86.5715 58.0499 86.5715 57.7658C86.5715 57.4816 86.6844 57.2091 86.8853 57.0081C87.0862 56.8072 87.3588 56.6943 87.6429 56.6943M87.6429 58.8372C87.9271 58.8372 88.1996 58.7243 88.4005 58.5234C88.6015 58.3224 88.7143 58.0499 88.7143 57.7658C88.7143 57.4816 88.6015 57.2091 88.4005 57.0081C88.1996 56.8072 87.9271 56.6943 87.6429 56.6943M87.6429 77.1629C87.3588 77.1629 87.0862 77.05 86.8853 76.8491C86.6844 76.6482 86.5715 76.3756 86.5715 76.0915C86.5715 75.8073 86.6844 75.5348 86.8853 75.3339C87.0862 75.1329 87.3588 75.0201 87.6429 75.0201M87.6429 77.1629C87.9271 77.1629 88.1996 77.05 88.4005 76.8491C88.6015 76.6482 88.7143 76.3756 88.7143 76.0915C88.7143 75.8073 88.6015 75.5348 88.4005 75.3339C88.1996 75.1329 87.9271 75.0201 87.6429 75.0201" stroke="black" stroke-width="4" stroke-linecap="round" stroke-linejoin="round"/>
</svg>
