<svg width="110" height="110" viewBox="0 0 110 110" fill="none" xmlns="http://www.w3.org/2000/svg">
<path d="M54.418 103.125C47.1992 103.038 16.5665 84.8535 13.0305 78.5583C9.49444 72.2631 9.92985 36.6414 13.6126 30.4333C17.2953 24.2252 48.3634 6.78788 55.5844 6.87496C62.8055 6.96204 93.4359 25.1464 96.9719 31.4416C100.508 37.7368 100.073 73.3585 96.3876 79.5666C92.7026 85.7748 61.6367 103.212 54.418 103.125Z" stroke="black" stroke-width="4" stroke-linecap="round" stroke-linejoin="round"/>
<path d="M54.9083 80.1855L33.5065 67.4484V41.9719M54.9083 80.1855L76.3102 67.4438V41.9719M54.9083 80.1855L32.3125 93.1517M33.5065 41.9719L54.9083 29.2349L76.3102 41.9719M33.5065 41.9719L33.5637 16.1311M76.3102 41.9719L99.385 55.5753" stroke="black" stroke-width="4" stroke-linecap="round" stroke-linejoin="round"/>
</svg>
