<svg width="60" height="60" viewBox="0 0 60 60" fill="none" xmlns="http://www.w3.org/2000/svg">
<path d="M9.5999 30C9.5999 18.72 18.7199 9.60001 29.9999 9.60001C41.2799 9.60001 50.3999 18.72 50.3999 30C50.3999 41.28 41.2799 50.4 29.9999 50.4C18.7199 50.4 9.5999 41.28 9.5999 30ZM47.9999 30C47.9999 20.04 39.9599 12 29.9999 12C20.0399 12 11.9999 20.04 11.9999 30C11.9999 39.96 20.0399 48 29.9999 48C39.9599 48 47.9999 39.96 47.9999 30Z" fill="white"/>
<path d="M27.96 39.96L37.92 30L27.96 20.04L29.64 18.36L41.28 30L29.64 41.64L27.96 39.96Z" fill="white"/>
<path d="M39.6001 28.8V31.2L19.2001 31.2V28.8L39.6001 28.8Z" fill="white"/>
</svg>
