<svg width="60" height="60" viewBox="0 0 60 60" fill="none" xmlns="http://www.w3.org/2000/svg">
<path d="M29.9999 9.59999C41.2799 9.59999 50.3999 18.72 50.3999 30C50.3999 41.28 41.2799 50.4 29.9999 50.4C18.7199 50.4 9.5999 41.28 9.5999 30C9.5999 18.72 18.7199 9.59999 29.9999 9.59999ZM29.9999 48C39.9599 48 47.9999 39.96 47.9999 30C47.9999 20.04 39.9599 12 29.9999 12C20.0399 12 11.9999 20.04 11.9999 30C11.9999 39.96 20.0399 48 29.9999 48Z" fill="black"/>
<path d="M20.0399 27.96L29.9999 37.92L39.9599 27.96L41.6399 29.64L29.9999 41.28L18.3599 29.64L20.0399 27.96Z" fill="black"/>
<path d="M31.2 39.6H28.8V19.2H31.2V39.6Z" fill="black"/>
</svg>
